     7777777777777  3333333   7777777777777   8888888      44444   2222222        
     777777777777  333333333   777777777777  888888888    444 44  222   222 
     77      777  333     333   77     777  888     888  444  44 222     222 
            777          333          777    888   888  444   44        222 
           777         3333          777      8888888   444444444      222                  
          777            333        777      888   888  444444444     222        
         777      333     333      777      888     888       44    2222
        777        333333333      777        888888888        44   222222222         
       777          3333333      777          8888888         44  2222222222
_______________________________________________________________________________________________________________________________________________________________________________________________________________________________________________________________


General
Complete name                    : A Night At The Roxbury
Format                           : AVI
Format/Info                      : Audio Video Interleave
File size                        : 1 000 MiB
Duration                         : 1h 18mn
Overall bit rate                 : 1 779 Kbps
Writing application              : VirtualDubMod 1.5.4.1 (build 2178/release)
Writing library                  : VirtualDubMod build 2178/release
 
http://www.imdb.com/title/tt0120770/

Haddaway - What id Love.mp3 Included!

_______________________________________________________________________________________________________________________________________________________________________________________________________________________________________________________________

Video
ID                               : 0
Format                           : MPEG-4 Visual
Format profile                   : Advanced Simple@L5
Format settings, BVOP            : Yes
Format settings, QPel            : No
Format settings, GMC             : No warppoints
Format settings, Matrix          : Default (H.263)
Muxing mode                      : Packed bitstream
Codec ID                         : XVID
Codec ID/Hint                    : XviD
Duration                         : 1h 18mn
Bit rate                         : 1 324 Kbps
Width                            : 704 pixels
Height                           : 400 pixels
Display aspect ratio             : 16:9
Frame rate                       : 25.000 fps
Color space                      : YUV
Chroma subsampling               : 4:2:0
Bit depth                        : 8 bits
Scan type                        : Progressive
Bits/(Pixel*Frame)               : 0.188
Stream size                      : 744 MiB (74%)
Writing library                  : XviD 1.2.1 (UTC 2008-12-04)
_______________________________________________________________________________________________________________________________________________________________________________________________________________________________________________________________               


Audio
ID                               : 1
Format                           : AC-3
Format/Info                      : Audio Coding 3
Mode extension                   : CM (complete main)
Codec ID                         : 2000
Duration                         : 1h 18mn
Bit rate mode                    : Constant
Bit rate                         : 448 Kbps
Channel(s)                       : 6 channels
Channel positions                : Front: L C R, Side: L R, LFE
Sampling rate                    : 48.0 KHz
Bit depth                        : 16 bits
Stream size                      : 252 MiB (25%)
Alignment                        : Split accross interleaves
Interleave, duration             : 80 ms (2.00 video frames)
Interleave, preload duration     : 500 ms
Language                         : English

_______________________________________________________________________________________________________________________________________________________________________________________________________________________________________________________________

Notes
 - Great Movie! If you enjoy this Movie buy it
 - Please SEED!
 - Please SEED!	
